<?xml version="1.0" encoding="UTF-8"?>
<svg xmlns="http://www.w3.org/2000/svg" xmlns:xlink="http://www.w3.org/1999/xlink" width="90px" height="90px" viewBox="0 0 90 90" version="1.1">
<g id="surface1">
<path style=" stroke:none;fill-rule:nonzero;fill:rgb(100%,79.607843%,29.803922%);fill-opacity:1;" d="M 87.5 42.546875 C 87.5 66.015625 68.472656 85.046875 45 85.046875 C 21.527344 85.046875 2.5 66.015625 2.5 42.546875 C 2.5 19.074219 21.527344 0.046875 45 0.046875 C 68.472656 0.046875 87.5 19.074219 87.5 42.546875 Z M 87.5 42.546875 "/>
<path style=" stroke:none;fill-rule:nonzero;fill:rgb(39.607843%,27.843137%,10.588235%);fill-opacity:1;" d="M 36.308594 52.589844 C 35.933594 52.292969 35.664062 51.886719 35.53125 51.429688 C 35.359375 50.894531 35.425781 50.3125 35.707031 49.828125 C 35.984375 49.34375 36.457031 49 37.003906 48.878906 C 48.324219 46.324219 55.949219 52.285156 56.269531 52.539062 C 57.230469 53.304688 57.417969 54.652344 56.703125 55.550781 C 55.988281 56.449219 54.632812 56.554688 53.675781 55.796875 C 53.398438 55.585938 47.367188 50.988281 38.21875 53.050781 C 37.546875 53.195312 36.84375 53.023438 36.308594 52.589844 Z M 36.308594 52.589844 "/>
<path style=" stroke:none;fill-rule:nonzero;fill:rgb(39.607843%,27.843137%,10.588235%);fill-opacity:1;" d="M 38.109375 27.933594 C 38.109375 24.269531 35.730469 21.296875 32.796875 21.296875 C 29.863281 21.296875 27.484375 24.269531 27.484375 27.933594 C 27.484375 31.601562 29.863281 34.574219 32.796875 34.574219 C 35.730469 34.574219 38.109375 31.601562 38.109375 27.933594 Z M 38.109375 27.933594 "/>
<path style=" stroke:none;fill-rule:nonzero;fill:rgb(39.607843%,27.843137%,10.588235%);fill-opacity:1;" d="M 66.25 30.589844 C 66.25 26.921875 63.871094 23.949219 60.9375 23.949219 C 58.003906 23.949219 55.625 26.921875 55.625 30.589844 C 55.625 34.257812 58.003906 37.230469 60.9375 37.230469 C 63.871094 37.230469 66.25 34.257812 66.25 30.589844 Z M 66.25 30.589844 "/>
<path style=" stroke:none;fill-rule:nonzero;fill:rgb(94.509804%,56.470588%,12.54902%);fill-opacity:1;" d="M 43.191406 87.871094 C 43.191406 87.871094 46.351562 86.84375 46.761719 84.492188 C 47.195312 82.0625 45.203125 81.574219 45.203125 81.574219 C 45.203125 81.574219 47.804688 81.054688 48.132812 78.136719 C 48.441406 75.382812 45.980469 74.726562 45.980469 74.726562 C 45.980469 74.726562 48.40625 73.726562 48.519531 70.878906 C 48.613281 68.484375 46.03125 67.308594 46.03125 67.308594 C 46.03125 67.308594 58.628906 64.257812 59.921875 63.957031 C 61.210938 63.65625 63.222656 62.421875 62.59375 59.722656 C 61.972656 57.023438 59.585938 56.925781 58.351562 57.214844 C 57.117188 57.503906 41.492188 61.128906 36.101562 62.386719 L 32.503906 63.21875 C 31.15625 63.539062 30.542969 62.945312 31.496094 61.941406 C 32.765625 60.601562 33.578125 59.117188 33.859375 56.65625 C 34.15625 54.070312 33.28125 50.875 32.777344 49.636719 C 31.84375 47.332031 30.265625 45.511719 28.441406 44.886719 C 25.601562 43.914062 23.578125 45.691406 24.585938 48.789062 C 26.097656 53.425781 25.109375 57.226562 22.503906 59.523438 C 16.382812 64.914062 13.535156 68.761719 15.429688 76.953125 C 17.5 85.890625 26.371094 91.644531 35.308594 89.574219 Z M 43.191406 87.871094 "/>
<path style=" stroke:none;fill-rule:nonzero;fill:rgb(39.607843%,27.843137%,10.588235%);fill-opacity:1;" d="M 23.238281 15.878906 C 22.820312 15.652344 22.476562 15.304688 22.261719 14.878906 C 22 14.386719 21.957031 13.800781 22.140625 13.273438 C 22.328125 12.746094 22.730469 12.320312 23.246094 12.101562 C 33.910156 7.523438 42.492188 11.992188 42.851562 12.183594 C 43.933594 12.761719 44.371094 14.050781 43.828125 15.070312 C 43.289062 16.082031 41.980469 16.433594 40.898438 15.863281 C 40.589844 15.707031 33.816406 12.285156 25.203125 15.984375 C 24.566406 16.246094 23.84375 16.207031 23.238281 15.878906 Z M 53.578125 25.253906 C 53.175781 25 52.859375 24.628906 52.671875 24.191406 C 52.441406 23.679688 52.4375 23.09375 52.660156 22.578125 C 52.882812 22.0625 53.3125 21.667969 53.84375 21.484375 C 64.796875 17.640625 73.054688 22.683594 73.398438 22.898438 C 74.4375 23.550781 74.789062 24.867188 74.179688 25.84375 C 73.574219 26.820312 72.238281 27.082031 71.203125 26.441406 C 70.902344 26.261719 64.386719 22.386719 55.535156 25.492188 C 54.878906 25.710938 54.160156 25.621094 53.578125 25.253906 Z M 53.578125 25.253906 "/>
</g>
</svg>
