<?xml version="1.0" encoding="UTF-8"?>
<svg xmlns="http://www.w3.org/2000/svg" xmlns:xlink="http://www.w3.org/1999/xlink" width="160px" height="160px" viewBox="0 0 160 160" version="1.1">
<defs>
<clipPath id="clip1">
  <path d="M 1 1 L 160 1 L 160 160 L 1 160 Z M 1 1 "/>
</clipPath>
<clipPath id="clip2">
  <path d="M 160 80.742188 C 160 124.453125 124.566406 159.886719 80.851562 159.886719 C 37.140625 159.886719 1.707031 124.453125 1.707031 80.742188 C 1.707031 37.027344 37.140625 1.59375 80.851562 1.59375 C 124.566406 1.59375 160 37.027344 160 80.742188 Z M 160 80.742188 "/>
</clipPath>
<filter id="alpha" filterUnits="objectBoundingBox" x="0%" y="0%" width="100%" height="100%">
  <feColorMatrix type="matrix" in="SourceGraphic" values="0 0 0 0 1 0 0 0 0 1 0 0 0 0 1 0 0 0 1 0"/>
</filter>
<mask id="mask0">
  <g filter="url(#alpha)">
<rect x="0" y="0" width="160" height="160" style="fill:rgb(0%,0%,0%);fill-opacity:0.2;stroke:none;"/>
  </g>
</mask>
<clipPath id="clip3">
  <rect x="0" y="0" width="160" height="160"/>
</clipPath>
<g id="surface5" clip-path="url(#clip3)">
<path style=" stroke:none;fill-rule:nonzero;fill:rgb(0%,0%,0%);fill-opacity:1;" d="M 69.441406 2.414062 C 69.441406 2.414062 75.992188 21.675781 71.804688 28.214844 C 67.617188 34.753906 61.746094 44.101562 52.355469 45.246094 C 42.964844 46.394531 39.242188 39.949219 32.726562 46.425781 C 26.207031 52.902344 23.886719 61.835938 25.746094 66.90625 C 28.230469 72.511719 31.027344 77.976562 34.121094 83.269531 C 34.121094 83.269531 35.046875 95.304688 33.65625 97.59375 C 32.265625 99.882812 33.191406 103.46875 20.632812 107.683594 C 8.070312 111.898438 -16.585938 102.238281 -16.585938 102.238281 L -31.933594 28.222656 L 33.660156 -15.023438 Z M 69.441406 2.414062 "/>
</g>
<mask id="mask1">
  <g filter="url(#alpha)">
<rect x="0" y="0" width="160" height="160" style="fill:rgb(0%,0%,0%);fill-opacity:0.2;stroke:none;"/>
  </g>
</mask>
<clipPath id="clip4">
  <rect x="0" y="0" width="160" height="160"/>
</clipPath>
<g id="surface8" clip-path="url(#clip4)">
<path style=" stroke:none;fill-rule:nonzero;fill:rgb(0%,0%,0%);fill-opacity:1;" d="M 211.199219 75.96875 C 211.199219 75.96875 193.644531 86.253906 186.402344 83.464844 C 179.15625 80.675781 168.820312 76.796875 165.816406 67.828125 C 162.816406 58.855469 168.378906 53.914062 160.726562 48.835938 C 153.074219 43.761719 143.851562 43.273438 139.261719 46.109375 C 134.269531 49.667969 129.476562 53.503906 124.910156 57.597656 C 124.910156 57.597656 113.308594 60.925781 110.785156 60.015625 C 108.261719 59.109375 104.9375 60.742188 98.285156 49.28125 C 91.632812 37.820312 90.535156 -21.527344 90.535156 -21.527344 L 165.582031 -18.15625 L 221.101562 37.425781 Z M 211.199219 75.96875 "/>
</g>
<mask id="mask2">
  <g filter="url(#alpha)">
<rect x="0" y="0" width="160" height="160" style="fill:rgb(0%,0%,0%);fill-opacity:0.2;stroke:none;"/>
  </g>
</mask>
<clipPath id="clip5">
  <rect x="0" y="0" width="160" height="160"/>
</clipPath>
<g id="surface11" clip-path="url(#clip5)">
<path style=" stroke:none;fill-rule:nonzero;fill:rgb(0%,0%,0%);fill-opacity:1;" d="M 67.78125 86.402344 C 66.015625 84.246094 64.945312 78.414062 65.640625 75.472656 C 66.339844 72.53125 67.304688 68.332031 69.660156 67.507812 C 72.019531 66.683594 73.371094 69.296875 74.667969 66.300781 C 75.875 63.457031 76.085938 60.289062 75.261719 57.308594 C 74.480469 55.210938 72.128906 50.625 72.128906 50.625 C 71.710938 48.601562 71.46875 46.550781 71.398438 44.492188 C 71.394531 42.515625 72.453125 40.691406 74.171875 39.71875 C 77.175781 37.46875 84.125 40.707031 84.125 40.707031 C 84.125 40.707031 93.84375 63.835938 92.472656 71.753906 C 91.390625 77.988281 84.320312 91.648438 78.058594 92.5625 C 75.101562 92.996094 69.679688 88.71875 67.78125 86.402344 Z M 67.78125 86.402344 "/>
</g>
<clipPath id="clip6">
  <path d="M 0 0 L 72 0 L 72 108 L 0 108 Z M 0 0 "/>
</clipPath>
<clipPath id="clip7">
  <path d="M 158.292969 79.269531 C 158.292969 122.980469 122.859375 158.417969 79.148438 158.417969 C 35.433594 158.417969 0 122.980469 0 79.269531 C 0 35.558594 35.433594 0.125 79.148438 0.125 C 122.859375 0.125 158.292969 35.558594 158.292969 79.269531 Z M 158.292969 79.269531 "/>
</clipPath>
<clipPath id="clip8">
  <path d="M 88 0 L 159 0 L 159 83 L 88 83 Z M 88 0 "/>
</clipPath>
<clipPath id="clip9">
  <path d="M 158.292969 79.269531 C 158.292969 122.980469 122.859375 158.417969 79.148438 158.417969 C 35.433594 158.417969 0 122.980469 0 79.269531 C 0 35.558594 35.433594 0.125 79.148438 0.125 C 122.859375 0.125 158.292969 35.558594 158.292969 79.269531 Z M 158.292969 79.269531 "/>
</clipPath>
<clipPath id="clip10">
  <path d="M 63 37 L 91 37 L 91 92 L 63 92 Z M 63 37 "/>
</clipPath>
<clipPath id="clip11">
  <path d="M 158.292969 79.269531 C 158.292969 122.980469 122.859375 158.417969 79.148438 158.417969 C 35.433594 158.417969 0 122.980469 0 79.269531 C 0 35.558594 35.433594 0.125 79.148438 0.125 C 122.859375 0.125 158.292969 35.558594 158.292969 79.269531 Z M 158.292969 79.269531 "/>
</clipPath>
<clipPath id="clip12">
  <path d="M 45 116 L 145 116 L 145 159 L 45 159 Z M 45 116 "/>
</clipPath>
<clipPath id="clip13">
  <path d="M 158.292969 79.269531 C 158.292969 122.980469 122.859375 158.417969 79.148438 158.417969 C 35.433594 158.417969 0 122.980469 0 79.269531 C 0 35.558594 35.433594 0.125 79.148438 0.125 C 122.859375 0.125 158.292969 35.558594 158.292969 79.269531 Z M 158.292969 79.269531 "/>
</clipPath>
<mask id="mask3">
  <g filter="url(#alpha)">
<rect x="0" y="0" width="160" height="160" style="fill:rgb(0%,0%,0%);fill-opacity:0.2;stroke:none;"/>
  </g>
</mask>
<clipPath id="clip14">
  <rect x="0" y="0" width="160" height="160"/>
</clipPath>
<g id="surface14" clip-path="url(#clip14)">
<path style=" stroke:none;fill-rule:nonzero;fill:rgb(0%,0%,0%);fill-opacity:1;" d="M 79.140625 158.414062 C 111.882812 158.417969 141.246094 138.257812 153.007812 107.703125 C 164.769531 77.144531 156.5 42.5 132.207031 20.550781 C 145.378906 35.082031 152.660156 54.003906 152.632812 73.617188 C 152.632812 117.328125 111.441406 157.597656 67.726562 157.597656 "/>
</g>
<mask id="mask4">
  <g filter="url(#alpha)">
<rect x="0" y="0" width="160" height="160" style="fill:rgb(0%,0%,0%);fill-opacity:0.2;stroke:none;"/>
  </g>
</mask>
<clipPath id="clip15">
  <rect x="0" y="0" width="160" height="160"/>
</clipPath>
<g id="surface17" clip-path="url(#clip15)">
<path style=" stroke:none;fill-rule:nonzero;fill:rgb(0%,0%,0%);fill-opacity:1;" d="M 41.9375 18.71875 C 45.246094 16.203125 49.480469 15.25 53.550781 16.101562 C 55.214844 15.949219 56.878906 16.371094 58.273438 17.292969 L 58.300781 17.316406 C 58.097656 16.96875 57.804688 16.683594 57.460938 16.480469 C 56.066406 15.558594 54.398438 15.136719 52.734375 15.289062 C 48.667969 14.433594 44.429688 15.390625 41.121094 17.90625 C 35.511719 21.789062 36.519531 24.949219 38.378906 26.34375 C 37.179688 24.71875 37.238281 21.972656 41.9375 18.71875 Z M 41.9375 18.71875 "/>
</g>
<mask id="mask5">
  <g filter="url(#alpha)">
<rect x="0" y="0" width="160" height="160" style="fill:rgb(0%,0%,0%);fill-opacity:0.2;stroke:none;"/>
  </g>
</mask>
<clipPath id="clip16">
  <rect x="0" y="0" width="160" height="160"/>
</clipPath>
<g id="surface20" clip-path="url(#clip16)">
<path style=" stroke:none;fill-rule:nonzero;fill:rgb(0%,0%,0%);fill-opacity:1;" d="M 80.851562 120.6875 C 80.347656 120.6875 79.847656 120.71875 79.351562 120.765625 C 87.859375 121.539062 94.371094 128.667969 94.375 137.210938 L 94.375 137.605469 C 94.375 139.726562 92.652344 141.449219 90.527344 141.449219 L 93.527344 141.449219 C 95.652344 141.449219 97.371094 139.726562 97.371094 137.605469 L 97.371094 137.210938 C 97.371094 128.085938 89.976562 120.6875 80.851562 120.6875 Z M 80.851562 120.6875 "/>
</g>
<clipPath id="clip17">
  <path d="M 69 137 L 92 137 L 92 142 L 69 142 Z M 69 137 "/>
</clipPath>
<clipPath id="clip18">
  <path d="M 93.527344 141.449219 L 68.175781 141.449219 C 66.050781 141.449219 64.332031 139.726562 64.332031 137.605469 L 64.332031 137.210938 C 64.332031 128.085938 71.726562 120.6875 80.851562 120.6875 C 89.976562 120.6875 97.371094 128.085938 97.371094 137.210938 L 97.371094 137.605469 C 97.371094 139.726562 95.652344 141.449219 93.527344 141.449219 Z M 93.527344 141.449219 "/>
</clipPath>
</defs>
<g id="surface1">
<path style=" stroke:none;fill-rule:nonzero;fill:rgb(35.686275%,68.235294%,81.960784%);fill-opacity:1;" d="M 158.292969 79.269531 C 158.292969 122.980469 122.859375 158.417969 79.148438 158.417969 C 35.433594 158.417969 0 122.980469 0 79.269531 C 0 35.558594 35.433594 0.125 79.148438 0.125 C 122.859375 0.125 158.292969 35.558594 158.292969 79.269531 Z M 158.292969 79.269531 "/>
<path style=" stroke:none;fill-rule:nonzero;fill:rgb(19.215686%,14.117647%,28.627451%);fill-opacity:1;" d="M 58.414062 91.140625 C 58.414062 93.886719 56.1875 96.113281 53.441406 96.113281 C 50.691406 96.113281 48.464844 93.886719 48.464844 91.140625 C 48.464844 88.394531 50.691406 86.164062 53.441406 86.164062 C 56.1875 86.164062 58.414062 88.394531 58.414062 91.140625 Z M 58.414062 91.140625 "/>
<path style=" stroke:none;fill-rule:nonzero;fill:rgb(19.215686%,14.117647%,28.627451%);fill-opacity:1;" d="M 109.824219 91.140625 C 109.824219 93.886719 107.597656 96.113281 104.851562 96.113281 C 102.105469 96.113281 99.875 93.886719 99.875 91.140625 C 99.875 88.394531 102.105469 86.164062 104.851562 86.164062 C 107.597656 86.164062 109.824219 88.394531 109.824219 91.140625 Z M 109.824219 91.140625 "/>
<path style=" stroke:none;fill-rule:nonzero;fill:rgb(100%,100%,100%);fill-opacity:1;" d="M 51.566406 89.835938 C 51.566406 90.339844 51.15625 90.753906 50.648438 90.753906 C 50.140625 90.753906 49.730469 90.339844 49.730469 89.835938 C 49.730469 89.328125 50.140625 88.914062 50.648438 88.914062 C 51.15625 88.914062 51.566406 89.328125 51.566406 89.835938 Z M 51.566406 89.835938 "/>
<path style=" stroke:none;fill-rule:nonzero;fill:rgb(100%,100%,100%);fill-opacity:1;" d="M 102.980469 89.835938 C 102.980469 90.339844 102.566406 90.753906 102.0625 90.753906 C 101.554688 90.753906 101.144531 90.339844 101.144531 89.835938 C 101.144531 89.328125 101.554688 88.914062 102.0625 88.914062 C 102.566406 88.914062 102.980469 89.328125 102.980469 89.835938 Z M 102.980469 89.835938 "/>
<g clip-path="url(#clip1)" clip-rule="nonzero">
<g clip-path="url(#clip2)" clip-rule="nonzero">
<use xlink:href="#surface5" mask="url(#mask0)"/>
<use xlink:href="#surface8" mask="url(#mask1)"/>
<use xlink:href="#surface11" mask="url(#mask2)"/>
</g>
</g>
<g clip-path="url(#clip6)" clip-rule="nonzero">
<g clip-path="url(#clip7)" clip-rule="nonzero">
<path style=" stroke:none;fill-rule:nonzero;fill:rgb(61.960784%,82.745098%,16.862745%);fill-opacity:1;" d="M 67.734375 0.945312 C 67.734375 0.945312 74.285156 20.207031 70.097656 26.746094 C 65.910156 33.28125 60.039062 42.628906 50.648438 43.769531 C 41.257812 44.910156 37.535156 38.46875 31.019531 44.945312 C 24.5 51.421875 22.179688 60.359375 24.039062 65.429688 C 26.523438 71.035156 29.320312 76.496094 32.414062 81.792969 C 32.414062 81.792969 33.339844 93.824219 31.949219 96.117188 C 30.558594 98.40625 31.488281 101.988281 18.925781 106.203125 C 6.363281 110.421875 -18.289062 100.761719 -18.289062 100.761719 L -33.636719 26.746094 L 31.957031 -16.492188 Z M 67.734375 0.945312 "/>
</g>
</g>
<g clip-path="url(#clip8)" clip-rule="nonzero">
<g clip-path="url(#clip9)" clip-rule="nonzero">
<path style=" stroke:none;fill-rule:nonzero;fill:rgb(61.960784%,82.745098%,16.862745%);fill-opacity:1;" d="M 209.492188 74.5 C 209.492188 74.5 191.941406 84.785156 184.695312 81.992188 C 177.449219 79.203125 167.113281 75.324219 164.113281 66.355469 C 161.109375 57.386719 166.671875 52.445312 159.019531 47.367188 C 151.367188 42.289062 142.148438 41.800781 137.554688 44.640625 C 132.5625 48.199219 127.769531 52.03125 123.207031 56.125 C 123.207031 56.125 111.601562 59.453125 109.078125 58.539062 C 106.554688 57.628906 103.234375 59.265625 96.582031 47.804688 C 89.929688 36.34375 88.828125 -23.011719 88.828125 -23.011719 L 163.875 -19.636719 L 219.398438 35.941406 Z M 209.492188 74.5 "/>
</g>
</g>
<g clip-path="url(#clip10)" clip-rule="nonzero">
<g clip-path="url(#clip11)" clip-rule="nonzero">
<path style=" stroke:none;fill-rule:nonzero;fill:rgb(61.960784%,82.745098%,16.862745%);fill-opacity:1;" d="M 66.074219 84.929688 C 64.308594 82.773438 63.238281 76.941406 63.933594 74 C 64.632812 71.0625 65.597656 66.859375 67.953125 66.035156 C 70.308594 65.210938 71.664062 67.828125 72.960938 64.828125 C 74.167969 61.984375 74.378906 58.816406 73.554688 55.835938 C 72.773438 53.738281 70.421875 49.152344 70.421875 49.152344 C 70.003906 47.132812 69.761719 45.082031 69.695312 43.019531 C 69.6875 41.042969 70.75 39.21875 72.46875 38.246094 C 75.46875 35.996094 82.417969 39.234375 82.417969 39.234375 C 82.417969 39.234375 92.140625 62.363281 90.765625 70.28125 C 89.683594 76.515625 82.613281 90.175781 76.351562 91.089844 C 73.394531 91.523438 67.972656 87.246094 66.074219 84.929688 Z M 66.074219 84.929688 "/>
</g>
</g>
<g clip-path="url(#clip12)" clip-rule="nonzero">
<g clip-path="url(#clip13)" clip-rule="nonzero">
<path style=" stroke:none;fill-rule:nonzero;fill:rgb(61.960784%,82.745098%,16.862745%);fill-opacity:1;" d="M 140.5625 124.660156 C 143.617188 127.050781 146.789062 135.75 143.574219 139.878906 C 140.359375 144.007812 135.855469 149.902344 128.09375 151.113281 C 120.332031 152.324219 116.976562 148.703125 111.828125 152.925781 C 106.675781 157.148438 105.105469 162.601562 106.855469 165.507812 C 109.195312 168.757812 111.742188 171.851562 114.484375 174.769531 C 114.484375 174.769531 115.746094 181.882812 114.675781 183.320312 C 113.609375 184.761719 114.53125 186.84375 104.257812 190.066406 C 93.984375 193.289062 45.019531 190.152344 45.019531 190.152344 L 57.332031 145.765625 C 57.332031 145.765625 95.25 119.066406 110.105469 116.3125 C 117.867188 114.878906 134.339844 119.800781 140.5625 124.660156 Z M 140.5625 124.660156 "/>
</g>
</g>
<use xlink:href="#surface14" mask="url(#mask3)"/>
<path style=" stroke:none;fill-rule:nonzero;fill:rgb(35.686275%,68.235294%,81.960784%);fill-opacity:1;" d="M 52.6875 15.289062 C 48.621094 14.433594 44.382812 15.390625 41.074219 17.90625 C 34.90625 22.179688 36.730469 25.582031 38.910156 26.714844 C 41.085938 27.847656 45.992188 27.0625 47.875 27.671875 C 49.757812 28.285156 50.761719 27.9375 53.632812 26.714844 C 56.503906 25.492188 52.617188 23.535156 55.015625 21.199219 C 57.414062 18.863281 59.699219 18.019531 57.414062 16.480469 C 56.019531 15.554688 54.351562 15.136719 52.6875 15.289062 Z M 52.6875 15.289062 "/>
<use xlink:href="#surface17" mask="url(#mask4)"/>
<path style=" stroke:none;fill-rule:nonzero;fill:rgb(19.215686%,14.117647%,28.627451%);fill-opacity:1;" d="M 93.527344 141.449219 L 68.175781 141.449219 C 66.050781 141.449219 64.332031 139.726562 64.332031 137.605469 L 64.332031 137.210938 C 64.332031 128.085938 71.726562 120.6875 80.851562 120.6875 C 89.976562 120.6875 97.371094 128.085938 97.371094 137.210938 L 97.371094 137.605469 C 97.371094 139.726562 95.652344 141.449219 93.527344 141.449219 Z M 93.527344 141.449219 "/>
<use xlink:href="#surface20" mask="url(#mask5)"/>
<g clip-path="url(#clip17)" clip-rule="nonzero">
<g clip-path="url(#clip18)" clip-rule="nonzero">
<path style=" stroke:none;fill-rule:nonzero;fill:rgb(99.215686%,10.196078%,8.627451%);fill-opacity:1;" d="M 91.917969 144.246094 C 91.917969 140.28125 86.964844 137.0625 80.851562 137.0625 C 74.738281 137.0625 69.785156 140.28125 69.785156 144.246094 C 69.785156 148.210938 74.738281 151.425781 80.851562 151.425781 C 86.964844 151.425781 91.917969 148.210938 91.917969 144.246094 Z M 91.917969 144.246094 "/>
</g>
</g>
</g>
</svg>
